<svg width="72" height="72" viewBox="0 0 72 72" fill="none" xmlns="http://www.w3.org/2000/svg">
<path d="M27.6484 0.719727H44.3516C49.2022 0.719727 52.7973 0.720671 55.6426 0.953125C58.4795 1.18491 60.5085 1.64402 62.2383 2.52539C65.354 4.11301 67.887 6.64603 69.4746 9.76172C70.356 11.4915 70.8151 13.5205 71.0469 16.3574C71.2793 19.2027 71.2803 22.7978 71.2803 27.6484V44.3516C71.2803 49.2022 71.2793 52.7973 71.0469 55.6426C70.8151 58.4795 70.356 60.5085 69.4746 62.2383C67.887 65.354 65.354 67.887 62.2383 69.4746C60.5085 70.356 58.4795 70.8151 55.6426 71.0469C52.7973 71.2793 49.2022 71.2803 44.3516 71.2803H27.6484C22.7978 71.2803 19.2027 71.2793 16.3574 71.0469C13.5205 70.8151 11.4915 70.356 9.76172 69.4746C6.64603 67.887 4.11301 65.354 2.52539 62.2383C1.64402 60.5085 1.18491 58.4795 0.953125 55.6426C0.720671 52.7973 0.719727 49.2022 0.719727 44.3516V27.6484C0.719727 22.7978 0.720671 19.2027 0.953125 16.3574C1.18491 13.5205 1.64402 11.4915 2.52539 9.76172C4.11301 6.64603 6.64603 4.11301 9.76172 2.52539C11.4915 1.64402 13.5205 1.18491 16.3574 0.953125C19.2027 0.720671 22.7978 0.719727 27.6484 0.719727Z" fill="#2A2A2A" fill-opacity="0.5"/>
<path d="M27.6484 0.719727H44.3516C49.2022 0.719727 52.7973 0.720671 55.6426 0.953125C58.4795 1.18491 60.5085 1.64402 62.2383 2.52539C65.354 4.11301 67.887 6.64603 69.4746 9.76172C70.356 11.4915 70.8151 13.5205 71.0469 16.3574C71.2793 19.2027 71.2803 22.7978 71.2803 27.6484V44.3516C71.2803 49.2022 71.2793 52.7973 71.0469 55.6426C70.8151 58.4795 70.356 60.5085 69.4746 62.2383C67.887 65.354 65.354 67.887 62.2383 69.4746C60.5085 70.356 58.4795 70.8151 55.6426 71.0469C52.7973 71.2793 49.2022 71.2803 44.3516 71.2803H27.6484C22.7978 71.2803 19.2027 71.2793 16.3574 71.0469C13.5205 70.8151 11.4915 70.356 9.76172 69.4746C6.64603 67.887 4.11301 65.354 2.52539 62.2383C1.64402 60.5085 1.18491 58.4795 0.953125 55.6426C0.720671 52.7973 0.719727 49.2022 0.719727 44.3516V27.6484C0.719727 22.7978 0.720671 19.2027 0.953125 16.3574C1.18491 13.5205 1.64402 11.4915 2.52539 9.76172C4.11301 6.64603 6.64603 4.11301 9.76172 2.52539C11.4915 1.64402 13.5205 1.18491 16.3574 0.953125C19.2027 0.720671 22.7978 0.719727 27.6484 0.719727Z" stroke="#333333" stroke-width="1.44"/>
<path d="M35.7604 51.3335C35.8882 51.3335 36.0159 51.3016 36.1437 51.2377C36.2715 51.1738 36.3673 51.1099 36.4312 51.046L52.1479 35.3293C52.5312 34.946 52.811 34.5147 52.9874 34.0356C53.1637 33.5564 53.2512 33.0772 53.25 32.5981C53.25 32.087 53.1624 31.5995 52.9874 31.1357C52.8123 30.6718 52.5325 30.2649 52.1479 29.9147L44.002 21.7689C43.6507 21.3856 43.243 21.1064 42.7792 20.9313C42.3154 20.7563 41.8292 20.6681 41.3206 20.6668C40.8415 20.6668 40.3623 20.755 39.8831 20.9313C39.404 21.1077 38.9727 21.3869 38.5894 21.7689L38.0623 22.296L41.6081 25.8897C42.0873 26.337 42.4387 26.8481 42.6623 27.4231C42.8859 27.9981 42.9977 28.605 42.9977 29.2439C42.9977 30.5856 42.5428 31.7119 41.633 32.623C40.7233 33.5341 39.5969 33.9889 38.254 33.9877C37.6151 33.9877 37.0005 33.8759 36.4101 33.6522C35.8198 33.4286 35.3004 33.0932 34.8519 32.646L31.2562 29.1002L22.8708 37.4856C22.775 37.5814 22.7034 37.6856 22.6561 37.798C22.6089 37.9104 22.5846 38.0299 22.5833 38.1564C22.5833 38.412 22.6791 38.6439 22.8708 38.8522C23.0625 39.0604 23.2861 39.1639 23.5416 39.1627C23.6694 39.1627 23.7972 39.1307 23.925 39.0668C24.0527 39.0029 24.1486 38.9391 24.2125 38.8752L30.7291 32.3585L33.4125 35.0418L26.9437 41.5585C26.8479 41.6543 26.7763 41.7585 26.729 41.8709C26.6818 41.9834 26.6575 42.1028 26.6562 42.2293C26.6562 42.4849 26.752 42.7085 26.9437 42.9002C27.1354 43.0918 27.359 43.1877 27.6145 43.1877C27.7423 43.1877 27.8701 43.1557 27.9979 43.0918C28.1257 43.0279 28.2215 42.9641 28.2854 42.9002L34.802 36.4314L37.4854 39.1147L31.0166 45.6314C30.9208 45.6953 30.8492 45.7911 30.802 45.9189C30.7547 46.0467 30.7304 46.1745 30.7291 46.3022C30.7291 46.5578 30.825 46.7814 31.0166 46.9731C31.2083 47.1647 31.4319 47.2606 31.6875 47.2606C31.8152 47.2606 31.9353 47.2363 32.0478 47.1877C32.1602 47.1392 32.2637 47.0676 32.3583 46.9731L38.875 40.5043L41.5583 43.1877L35.0416 49.7043C34.9458 49.8002 34.8742 49.9037 34.827 50.0148C34.7797 50.126 34.7554 50.2461 34.7541 50.3752C34.7541 50.6307 34.8583 50.8543 35.0665 51.046C35.2748 51.2377 35.5061 51.3335 35.7604 51.3335ZM35.7125 55.1668C34.5305 55.1668 33.4847 54.7758 32.5749 53.9938C31.6651 53.2118 31.1297 52.2292 30.9687 51.046C29.8826 50.8863 28.9722 50.439 28.2375 49.7043C27.5027 48.9696 27.0555 48.0592 26.8958 46.9731C25.8097 46.8134 24.9076 46.3585 24.1895 45.6084C23.4713 44.8584 23.0318 43.9556 22.8708 42.9002C21.6569 42.7404 20.6666 42.2134 19.9 41.3189C19.1333 40.4245 18.75 39.3703 18.75 38.1564C18.75 37.5175 18.8701 36.9029 19.1103 36.3126C19.3505 35.7222 19.6936 35.2028 20.1395 34.7543L31.2562 23.6856L37.5333 29.9627C37.5972 30.0585 37.693 30.1307 37.8208 30.1792C37.9486 30.2278 38.0763 30.2514 38.2041 30.2502C38.4916 30.2502 38.7312 30.1626 38.9229 29.9876C39.1145 29.8125 39.2104 29.5806 39.2104 29.2918C39.2104 29.1641 39.1861 29.0363 39.1375 28.9085C39.089 28.7807 39.0174 28.6849 38.9229 28.621L32.0708 21.7689C31.7194 21.3856 31.3124 21.1064 30.8499 20.9313C30.3873 20.7563 29.8998 20.6681 29.3875 20.6668C28.9083 20.6668 28.4291 20.755 27.95 20.9313C27.4708 21.1077 27.0395 21.3869 26.6562 21.7689L19.9 28.5731C19.6125 28.8606 19.3729 29.196 19.1812 29.5793C18.9895 29.9627 18.8618 30.346 18.7979 30.7293C18.734 31.1127 18.734 31.5043 18.7979 31.9042C18.8618 32.3042 18.9895 32.6792 19.1812 33.0293L16.402 35.8085C15.859 35.0738 15.4597 34.2675 15.2041 33.3897C14.9486 32.5118 14.8527 31.6251 14.9166 30.7293C14.9805 29.8336 15.2041 28.9634 15.5875 28.1188C15.9708 27.2742 16.4979 26.5152 17.1687 25.8418L23.925 19.0856C24.6916 18.3509 25.5465 17.7918 26.4895 17.4085C27.4325 17.0252 28.3985 16.8335 29.3875 16.8335C30.3765 16.8335 31.3431 17.0252 32.2874 17.4085C33.2317 17.7918 34.0699 18.3509 34.802 19.0856L35.3291 19.6127L35.8562 19.0856C36.6229 18.3509 37.4777 17.7918 38.4207 17.4085C39.3637 17.0252 40.3297 16.8335 41.3187 16.8335C42.3077 16.8335 43.2743 17.0252 44.2186 17.4085C45.1629 17.7918 46.0011 18.3509 46.7333 19.0856L54.8312 27.1835C55.5659 27.9182 56.125 28.7647 56.5083 29.7231C56.8916 30.6814 57.0833 31.6557 57.0833 32.646C57.0833 33.6363 56.8916 34.6029 56.5083 35.5459C56.125 36.4889 55.5659 37.3271 54.8312 38.0606L39.1145 53.7293C38.6673 54.1766 38.1485 54.5279 37.5582 54.7835C36.9679 55.0391 36.3526 55.1668 35.7125 55.1668Z" fill="#EBEBEB"/>
</svg>
