<svg width="72" height="72" viewBox="0 0 72 72" fill="none" xmlns="http://www.w3.org/2000/svg">
<rect x="0.72" y="0.72" width="70.56" height="70.56" rx="16.56" fill="#2A2A2A" fill-opacity="0.5"/>
<rect x="0.72" y="0.72" width="70.56" height="70.56" rx="16.56" stroke="#333333" stroke-width="1.44"/>
<path d="M32.1082 46.0799H39.8919C40.1453 43.7721 41.3223 41.8693 43.2327 39.788C43.4496 39.5538 44.8301 38.1234 44.9933 37.9199C46.3494 36.2257 47.1994 34.183 47.4454 32.027C47.6914 29.8709 47.3234 27.6892 46.3839 25.7332C45.4443 23.7771 43.9714 22.1261 42.1346 20.9705C40.2979 19.8148 38.1722 19.2014 36.0021 19.201C33.8321 19.2005 31.706 19.813 29.8688 20.9679C28.0316 22.1227 26.558 23.773 25.6176 25.7287C24.6772 27.6844 24.3083 29.8659 24.5534 32.0221C24.7985 34.1782 25.6476 36.2213 27.0029 37.9161C27.168 38.1215 28.5524 39.5538 28.7655 39.7861C30.6778 41.8674 31.8548 43.7721 32.1082 46.0799ZM39.84 49.9199H32.16V51.8399H39.84V49.9199ZM24.0077 40.3199C22.1994 38.0606 21.0662 35.3365 20.7385 32.4613C20.4108 29.5861 20.9019 26.6768 22.1554 24.0685C23.4089 21.4603 25.3737 19.2592 27.8234 17.7188C30.2732 16.1784 33.1083 15.3614 36.0021 15.3618C38.8959 15.3623 41.7308 16.1802 44.18 17.7214C46.6293 19.2626 48.5934 21.4643 49.846 24.073C51.0987 26.6816 51.5889 29.5911 51.2603 32.4662C50.9317 35.3413 49.7975 38.065 47.9885 40.3237C46.7981 41.806 43.68 44.1599 43.68 47.0399V51.8399C43.68 52.8583 43.2755 53.835 42.5553 54.5552C41.8352 55.2753 40.8585 55.6799 39.84 55.6799H32.16C31.1416 55.6799 30.1649 55.2753 29.4448 54.5552C28.7246 53.835 28.32 52.8583 28.32 51.8399V47.0399C28.32 44.1599 25.2 41.806 24.0077 40.3199ZM37.92 30.7276H42.72L34.08 42.2476V34.5676H29.28L37.92 23.0399V30.7276Z" fill="#EBEBEB"/>
</svg>
