<svg width="72" height="72" viewBox="0 0 72 72" fill="none" xmlns="http://www.w3.org/2000/svg">
<path d="M27.6484 0.719727H44.3516C49.2022 0.719727 52.7973 0.720671 55.6426 0.953125C58.4795 1.18491 60.5085 1.64402 62.2383 2.52539C65.354 4.11301 67.887 6.64603 69.4746 9.76172C70.356 11.4915 70.8151 13.5205 71.0469 16.3574C71.2793 19.2027 71.2803 22.7978 71.2803 27.6484V44.3516C71.2803 49.2022 71.2793 52.7973 71.0469 55.6426C70.8151 58.4795 70.356 60.5085 69.4746 62.2383C67.887 65.354 65.354 67.887 62.2383 69.4746C60.5085 70.356 58.4795 70.8151 55.6426 71.0469C52.7973 71.2793 49.2022 71.2803 44.3516 71.2803H27.6484C22.7978 71.2803 19.2027 71.2793 16.3574 71.0469C13.5205 70.8151 11.4915 70.356 9.76172 69.4746C6.64603 67.887 4.11301 65.354 2.52539 62.2383C1.64402 60.5085 1.18491 58.4795 0.953125 55.6426C0.720671 52.7973 0.719727 49.2022 0.719727 44.3516V27.6484C0.719727 22.7978 0.720671 19.2027 0.953125 16.3574C1.18491 13.5205 1.64402 11.4915 2.52539 9.76172C4.11301 6.64603 6.64603 4.11301 9.76172 2.52539C11.4915 1.64402 13.5205 1.18491 16.3574 0.953125C19.2027 0.720671 22.7978 0.719727 27.6484 0.719727Z" fill="#2A2A2A" fill-opacity="0.5"/>
<path d="M27.6484 0.719727H44.3516C49.2022 0.719727 52.7973 0.720671 55.6426 0.953125C58.4795 1.18491 60.5085 1.64402 62.2383 2.52539C65.354 4.11301 67.887 6.64603 69.4746 9.76172C70.356 11.4915 70.8151 13.5205 71.0469 16.3574C71.2793 19.2027 71.2803 22.7978 71.2803 27.6484V44.3516C71.2803 49.2022 71.2793 52.7973 71.0469 55.6426C70.8151 58.4795 70.356 60.5085 69.4746 62.2383C67.887 65.354 65.354 67.887 62.2383 69.4746C60.5085 70.356 58.4795 70.8151 55.6426 71.0469C52.7973 71.2793 49.2022 71.2803 44.3516 71.2803H27.6484C22.7978 71.2803 19.2027 71.2793 16.3574 71.0469C13.5205 70.8151 11.4915 70.356 9.76172 69.4746C6.64603 67.887 4.11301 65.354 2.52539 62.2383C1.64402 60.5085 1.18491 58.4795 0.953125 55.6426C0.720671 52.7973 0.719727 49.2022 0.719727 44.3516V27.6484C0.719727 22.7978 0.720671 19.2027 0.953125 16.3574C1.18491 13.5205 1.64402 11.4915 2.52539 9.76172C4.11301 6.64603 6.64603 4.11301 9.76172 2.52539C11.4915 1.64402 13.5205 1.18491 16.3574 0.953125C19.2027 0.720671 22.7978 0.719727 27.6484 0.719727Z" stroke="#333333" stroke-width="1.44"/>
<path d="M50.2055 21.7949L54.429 22.6391C54.6558 22.6845 54.8423 22.8508 54.9078 23.0751C54.9409 23.184 54.9438 23.2999 54.9163 23.4104C54.8888 23.5209 54.8319 23.6219 54.7515 23.7026L51.2916 27.1651C50.877 27.5773 50.3164 27.8092 49.7317 27.8102H46.8614L39.6542 35.0199C39.7917 35.5391 39.817 36.0816 39.7284 36.6113C39.6398 37.141 39.4393 37.6458 39.1403 38.0919C38.8413 38.5381 38.4507 38.9154 37.9945 39.1988C37.5382 39.4821 37.0268 39.665 36.4944 39.7352C35.9619 39.8054 35.4206 39.7614 34.9065 39.606C34.3924 39.4506 33.9173 39.1874 33.5129 38.834C33.1085 38.4806 32.784 38.0451 32.5611 37.5564C32.3382 37.0678 32.222 36.5373 32.2202 36.0002C32.2201 35.4201 32.3535 34.8478 32.61 34.3276C32.8665 33.8074 33.2393 33.3532 33.6996 33.0001C34.1598 32.6471 34.6951 32.4047 35.2641 32.2918C35.833 32.1788 36.4203 32.1983 36.9805 32.3487L44.1902 25.1365V22.2712C44.1902 21.6866 44.4221 21.1246 44.8353 20.7113L48.2978 17.2489C48.3785 17.1685 48.4795 17.1116 48.59 17.0841C48.7005 17.0566 48.8163 17.0595 48.9253 17.0926C49.1496 17.1581 49.3159 17.3446 49.3613 17.5714L50.2055 21.7949Z" fill="#EBEBEB"/>
<path d="M20.8805 36.0001C20.8831 38.1622 21.3493 40.2985 22.2478 42.2651C23.1462 44.2316 24.456 45.9826 26.0887 47.4C27.7214 48.8173 29.639 49.868 31.7123 50.4812C33.7856 51.0943 35.9663 51.2558 38.1073 50.9545C40.2482 50.6532 42.2997 49.8963 44.1233 48.7348C45.9468 47.5733 47.5001 46.0342 48.6783 44.2214C49.8565 42.4086 50.6322 40.3641 50.953 38.226C51.2739 36.0879 51.1325 33.9058 50.5384 31.827C50.455 31.5841 50.4219 31.3268 50.4411 31.0707C50.4603 30.8146 50.5314 30.5652 50.6501 30.3374C50.7688 30.1097 50.9326 29.9085 51.1315 29.7462C51.3304 29.5838 51.5603 29.4636 51.8072 29.3929C52.0541 29.3221 52.3127 29.3024 52.5675 29.3349C52.8222 29.3673 53.0677 29.4513 53.2889 29.5816C53.5102 29.712 53.7026 29.886 53.8544 30.0931C54.0063 30.3002 54.1144 30.536 54.1722 30.7862C55.3227 34.812 55.1041 39.1058 53.5509 42.9939C51.9977 46.8821 49.1977 50.1447 45.5901 52.2697C41.9826 54.3948 37.7717 55.2622 33.618 54.7358C29.4643 54.2094 25.6028 52.319 22.6395 49.3611C19.6793 46.3985 17.7869 42.5367 17.2593 38.382C16.7317 34.2274 17.5987 30.0151 19.7244 26.4066C21.85 22.7982 25.1139 19.9978 29.0035 18.4451C32.8931 16.8925 37.1881 16.6756 41.2144 17.8284C41.6938 17.9685 42.0982 18.2927 42.3393 18.7302C42.5804 19.1676 42.6386 19.6827 42.501 20.1628C42.3635 20.643 42.0415 21.0492 41.6054 21.2927C41.1693 21.5362 40.6545 21.5971 40.1736 21.4622C37.9222 20.8157 35.5513 20.7011 33.248 21.1276C30.9448 21.554 28.772 22.5097 26.9013 23.9194C25.0305 25.3291 23.5128 27.1541 22.468 29.2506C21.4232 31.3471 20.8797 33.6577 20.8805 36.0001Z" fill="#EBEBEB"/>
<path d="M28.4399 36C28.44 37.3774 28.8163 38.7286 29.5279 39.9079C30.2396 41.0872 31.2598 42.0498 32.4784 42.6919C33.697 43.334 35.0677 43.6313 36.4428 43.5515C37.8179 43.4718 39.1452 43.0181 40.2814 42.2395C41.4174 41.4589 42.3184 40.3826 42.8869 39.127C43.4554 37.8713 43.6698 36.4842 43.507 35.1155C43.4629 34.7833 43.5082 34.4455 43.6381 34.1367C43.7681 33.8278 43.978 33.5592 44.2462 33.3585C44.5145 33.1578 44.8314 33.0321 45.1643 32.9946C45.4972 32.957 45.8342 33.0089 46.1404 33.1448C46.4465 33.279 46.7116 33.492 46.9086 33.762C47.1056 34.0321 47.2275 34.3495 47.2618 34.682C47.5356 37.0208 47.0745 39.3869 45.9426 41.4518C44.8107 43.5167 43.064 45.1779 40.945 46.2051C38.826 47.2322 36.4399 47.5742 34.1177 47.1836C31.7955 46.793 29.6526 45.6892 27.9862 44.0253C26.3199 42.3615 25.2128 40.2202 24.8187 37.8986C24.4245 35.5771 24.7629 33.1904 25.7868 31.0699C26.8107 28.9493 28.4693 27.2001 30.5325 26.0651C32.5956 24.93 34.961 24.4653 37.3002 24.7356C37.5507 24.7588 37.794 24.8318 38.0159 24.9503C38.2378 25.0688 38.4338 25.2304 38.5924 25.4257C38.7511 25.6209 38.8691 25.8458 38.9397 26.0873C39.0103 26.3287 39.0319 26.5818 39.0034 26.8318C38.9749 27.0817 38.8968 27.3234 38.7736 27.5428C38.6505 27.7621 38.4848 27.9547 38.2863 28.1091C38.0877 28.2636 37.8604 28.3769 37.6175 28.4424C37.3746 28.5078 37.1211 28.5242 36.8718 28.4904C35.8126 28.3674 34.7393 28.4699 33.7224 28.7912C32.7056 29.1124 31.7682 29.6451 30.9719 30.3544C30.1755 31.0636 29.5382 31.9333 29.1019 32.9063C28.6655 33.8793 28.4399 34.9336 28.4399 36Z" fill="#EBEBEB"/>
</svg>
