<svg width="72" height="72" viewBox="0 0 72 72" fill="none" xmlns="http://www.w3.org/2000/svg">
<path d="M27.6484 0.719727H44.3516C49.2022 0.719727 52.7973 0.720671 55.6426 0.953125C58.4795 1.18491 60.5085 1.64402 62.2383 2.52539C65.354 4.11301 67.887 6.64603 69.4746 9.76172C70.356 11.4915 70.8151 13.5205 71.0469 16.3574C71.2793 19.2027 71.2803 22.7978 71.2803 27.6484V44.3516C71.2803 49.2022 71.2793 52.7973 71.0469 55.6426C70.8151 58.4795 70.356 60.5085 69.4746 62.2383C67.887 65.354 65.354 67.887 62.2383 69.4746C60.5085 70.356 58.4795 70.8151 55.6426 71.0469C52.7973 71.2793 49.2022 71.2803 44.3516 71.2803H27.6484C22.7978 71.2803 19.2027 71.2793 16.3574 71.0469C13.5205 70.8151 11.4915 70.356 9.76172 69.4746C6.64603 67.887 4.11301 65.354 2.52539 62.2383C1.64402 60.5085 1.18491 58.4795 0.953125 55.6426C0.720671 52.7973 0.719727 49.2022 0.719727 44.3516V27.6484C0.719727 22.7978 0.720671 19.2027 0.953125 16.3574C1.18491 13.5205 1.64402 11.4915 2.52539 9.76172C4.11301 6.64603 6.64603 4.11301 9.76172 2.52539C11.4915 1.64402 13.5205 1.18491 16.3574 0.953125C19.2027 0.720671 22.7978 0.719727 27.6484 0.719727Z" fill="#2A2A2A" fill-opacity="0.5"/>
<path d="M27.6484 0.719727H44.3516C49.2022 0.719727 52.7973 0.720671 55.6426 0.953125C58.4795 1.18491 60.5085 1.64402 62.2383 2.52539C65.354 4.11301 67.887 6.64603 69.4746 9.76172C70.356 11.4915 70.8151 13.5205 71.0469 16.3574C71.2793 19.2027 71.2803 22.7978 71.2803 27.6484V44.3516C71.2803 49.2022 71.2793 52.7973 71.0469 55.6426C70.8151 58.4795 70.356 60.5085 69.4746 62.2383C67.887 65.354 65.354 67.887 62.2383 69.4746C60.5085 70.356 58.4795 70.8151 55.6426 71.0469C52.7973 71.2793 49.2022 71.2803 44.3516 71.2803H27.6484C22.7978 71.2803 19.2027 71.2793 16.3574 71.0469C13.5205 70.8151 11.4915 70.356 9.76172 69.4746C6.64603 67.887 4.11301 65.354 2.52539 62.2383C1.64402 60.5085 1.18491 58.4795 0.953125 55.6426C0.720671 52.7973 0.719727 49.2022 0.719727 44.3516V27.6484C0.719727 22.7978 0.720671 19.2027 0.953125 16.3574C1.18491 13.5205 1.64402 11.4915 2.52539 9.76172C4.11301 6.64603 6.64603 4.11301 9.76172 2.52539C11.4915 1.64402 13.5205 1.18491 16.3574 0.953125C19.2027 0.720671 22.7978 0.719727 27.6484 0.719727Z" stroke="#333333" stroke-width="1.44"/>
<g clip-path="url(#clip0_244_1801)">
<path fill-rule="evenodd" clip-rule="evenodd" d="M54.2682 27.2275C53.8831 27.3657 53.4668 27.3916 53.0676 27.3024C52.6684 27.2132 52.3027 27.0124 52.0131 26.7235L50.4234 25.1309L38.336 37.2182C38.1354 37.419 37.8972 37.5782 37.6351 37.6868C37.3729 37.7955 37.0919 37.8514 36.8082 37.8514C36.5244 37.8514 36.2434 37.7955 35.9812 37.6868C35.7191 37.5782 35.4809 37.419 35.2803 37.2182L30.6694 32.6074L19.6851 43.5917C19.4858 43.7979 19.2473 43.9623 18.9838 44.0754C18.7202 44.1885 18.4367 44.2479 18.1499 44.2503C17.8631 44.2526 17.5787 44.1979 17.3133 44.0891C17.0479 43.9804 16.8068 43.8199 16.6041 43.617C16.4014 43.4141 16.2411 43.1728 16.1326 42.9073C16.0242 42.6418 15.9696 42.3574 15.9723 42.0706C15.9749 41.7838 16.0346 41.5004 16.1479 41.2369C16.2613 40.9734 16.4259 40.7352 16.6323 40.536L29.1373 28.0224C29.3379 27.8217 29.576 27.6625 29.8382 27.5538C30.1003 27.4452 30.3813 27.3893 30.6651 27.3893C30.9489 27.3893 31.2299 27.4452 31.492 27.5538C31.7542 27.6625 31.9924 27.8217 32.193 28.0224L36.8067 32.6362L47.3677 22.0752L45.7779 20.4854C45.4884 20.1963 45.287 19.8309 45.1971 19.4317C45.1072 19.0326 45.1325 18.6161 45.2701 18.2308C45.4077 17.8454 45.6519 17.5071 45.9743 17.2552C46.2967 17.0032 46.684 16.8481 47.0912 16.8077C49.7206 16.5485 51.2326 16.5485 53.7642 16.8077C54.2582 16.8588 54.7195 17.0785 55.0705 17.43C55.4214 17.7815 55.6405 18.2432 55.6909 18.7373C55.9529 21.2659 55.9501 22.7808 55.6909 25.4074C55.6504 25.8143 55.4952 26.2014 55.2433 26.5236C54.9914 26.8458 54.6533 27.0899 54.2682 27.2275ZM49.5939 31.5706C49.9202 31.2541 50.3381 31.0487 50.788 30.9835C51.2378 30.9184 51.6968 30.9968 52.0995 31.2077L54.8989 32.6765C55.2611 32.8671 55.5617 33.1567 55.7656 33.5116C55.9696 33.8665 56.0685 34.272 56.0509 34.681L55.256 53.6544C55.2329 54.2117 54.9952 54.7384 54.5926 55.1244C54.19 55.5103 53.6537 55.7256 53.096 55.7251H47.4166C47.2257 55.7251 47.0425 55.6493 46.9075 55.5142C46.7725 55.3792 46.6966 55.1961 46.6966 55.0051V34.6838C46.6964 34.5872 46.7157 34.4914 46.7533 34.4024C46.7909 34.3133 46.8461 34.2327 46.9155 34.1654L49.5939 31.5706ZM43.0966 55.0051C43.0966 55.1961 43.0208 55.3792 42.8857 55.5142C42.7507 55.6493 42.5676 55.7251 42.3766 55.7251H31.5766C31.3857 55.7251 31.2025 55.6493 31.0675 55.5142C30.9325 55.3792 30.8566 55.1961 30.8566 55.0051V38.2608C30.8566 38.2032 30.8998 38.1571 30.9574 38.1629C31.4269 38.1859 31.8877 38.3645 32.2678 38.6957L37.0054 42.8544C37.1413 42.974 37.3172 43.038 37.4981 43.0337C37.679 43.0294 37.8517 42.9572 37.9818 42.8314L41.8755 39.0528C41.9772 38.9543 42.1056 38.8879 42.2448 38.862C42.384 38.836 42.5277 38.8517 42.658 38.907C42.7883 38.9624 42.8994 39.0549 42.9774 39.173C43.0554 39.2911 43.0969 39.4296 43.0966 39.5712V55.0051ZM26.0211 42.1517L17.0643 51.2986C16.6679 51.702 16.4456 52.2449 16.4451 52.8106V53.5651C16.4451 54.7574 17.4128 55.7251 18.6051 55.7251H26.5366C26.7276 55.7251 26.9107 55.6493 27.0457 55.5142C27.1808 55.3792 27.2566 55.1961 27.2566 55.0051V42.6557C27.2569 42.5124 27.2144 42.3723 27.1346 42.2533C27.0548 42.1343 26.9413 42.0418 26.8086 41.9876C26.6759 41.9335 26.5301 41.9202 26.3898 41.9494C26.2495 41.9787 26.1211 42.0491 26.0211 42.1517Z" fill="#EBEBEB"/>
</g>
<defs>
<clipPath id="clip0_244_1801">
<rect width="40.32" height="40.32" fill="white" transform="translate(15.8398 15.8398)"/>
</clipPath>
</defs>
</svg>
