<svg width="77" height="79" viewBox="0 0 77 79" fill="none" xmlns="http://www.w3.org/2000/svg">
<g filter="url(#filter0_d_87_1548)">
<path d="M37.8112 15.3215H23.5111C20.1912 15.3215 17.5 18.0128 17.5 21.3326V44.3113C17.5 44.9244 18.1916 45.2822 18.692 44.9282L25.3512 40.2167C26.1131 39.6777 27.0234 39.3882 27.9567 39.3882H37.8112C41.131 39.3882 43.8222 36.697 43.8222 33.3772V21.3326C43.8222 18.0128 41.131 15.3215 37.8112 15.3215Z" stroke="white" stroke-width="3"/>
<rect x="44.3722" width="16" height="16" rx="8" fill="#FF0000"/>
<g filter="url(#filter1_d_87_1548)">
<path d="M53.337 4V12H51.8878V5.41016H51.8409L49.9698 6.60547V5.27734L51.9581 4H53.337Z" fill="white"/>
</g>
</g>
<defs>
<filter id="filter0_d_87_1548" x="-15.6278" y="0" width="92" height="92" filterUnits="userSpaceOnUse" color-interpolation-filters="sRGB">
<feFlood flood-opacity="0" result="BackgroundImageFix"/>
<feColorMatrix in="SourceAlpha" type="matrix" values="0 0 0 0 0 0 0 0 0 0 0 0 0 0 0 0 0 0 127 0" result="hardAlpha"/>
<feOffset dy="16"/>
<feGaussianBlur stdDeviation="8"/>
<feComposite in2="hardAlpha" operator="out"/>
<feColorMatrix type="matrix" values="0 0 0 0 0 0 0 0 0 0 0 0 0 0 0 0 0 0 0.4 0"/>
<feBlend mode="normal" in2="BackgroundImageFix" result="effect1_dropShadow_87_1548"/>
<feBlend mode="normal" in="SourceGraphic" in2="effect1_dropShadow_87_1548" result="shape"/>
</filter>
<filter id="filter1_d_87_1548" x="48.9698" y="4" width="5.36719" height="10" filterUnits="userSpaceOnUse" color-interpolation-filters="sRGB">
<feFlood flood-opacity="0" result="BackgroundImageFix"/>
<feColorMatrix in="SourceAlpha" type="matrix" values="0 0 0 0 0 0 0 0 0 0 0 0 0 0 0 0 0 0 127 0" result="hardAlpha"/>
<feOffset dy="1"/>
<feGaussianBlur stdDeviation="0.5"/>
<feComposite in2="hardAlpha" operator="out"/>
<feColorMatrix type="matrix" values="0 0 0 0 0 0 0 0 0 0 0 0 0 0 0 0 0 0 0.32 0"/>
<feBlend mode="normal" in2="BackgroundImageFix" result="effect1_dropShadow_87_1548"/>
<feBlend mode="normal" in="SourceGraphic" in2="effect1_dropShadow_87_1548" result="shape"/>
</filter>
</defs>
</svg>
