<svg width="40" height="40" viewBox="0 0 40 40" fill="none" xmlns="http://www.w3.org/2000/svg">
<g clip-path="url(#clip0_34_1393)">
<path d="M25.9609 10.6406C27.8643 10.6406 29.4121 12.1889 29.4121 14.0918V26.0137C29.4121 27.917 27.8638 29.4648 25.9609 29.4648H14.0391C12.1362 29.4648 10.5879 27.9166 10.5879 26.0137V14.0918C10.5879 12.1889 12.1362 10.6406 14.0391 10.6406H25.9609ZM19.999 13.8574C16.5826 13.8577 13.803 16.6373 13.8027 20.0537C13.8027 23.4708 16.5824 26.2507 19.999 26.251C23.4158 26.251 26.1963 23.4705 26.1963 20.0537C26.1961 16.6371 23.4161 13.8574 19.999 13.8574ZM26.3965 12.2051C25.5878 12.2051 24.9299 12.8627 24.9297 13.6709C24.9297 14.4793 25.5876 15.1377 26.3965 15.1377C27.2048 15.1376 27.8623 14.4792 27.8623 13.6709C27.8621 12.8627 27.2047 12.2052 26.3965 12.2051Z" fill="#EBEBEB"/>
<path d="M20.0004 16.4746C18.028 16.4746 16.4219 18.0798 16.4219 20.0523C16.4219 22.0256 18.028 23.6313 20.0004 23.6313C21.9737 23.6313 23.5785 22.0256 23.5785 20.0523C23.5785 18.0803 21.9733 16.4746 20.0004 16.4746Z" fill="#EBEBEB"/>
<path d="M20 0C31.0453 0 39.9999 8.95473 40 20C40 31.0454 31.0454 40 20 40C8.95473 39.9999 0 31.0453 0 20C0.000103008 8.95479 8.95479 0.000103001 20 0ZM14.0381 8.02344C10.6916 8.02364 7.96895 10.7463 7.96875 14.0928V26.0146C7.96875 29.3618 10.6914 32.0848 14.0381 32.085H25.96C29.3072 32.085 32.0303 29.3619 32.0303 26.0146V14.0928C32.0301 10.7461 29.3071 8.02344 25.96 8.02344H14.0381Z" fill="#EBEBEB"/>
</g>
<defs>
<clipPath id="clip0_34_1393">
<rect width="40" height="40" fill="white"/>
</clipPath>
</defs>
</svg>
