<svg width="40" height="40" viewBox="0 0 40 40" fill="none" xmlns="http://www.w3.org/2000/svg">
<g clip-path="url(#clip0_34_1387)">
<path d="M20 -9.15527e-05C31.0455 -2.30951e-05 39.9999 8.87554 40 19.8241C40 30.7728 31.0456 39.6483 20 39.6483C8.95438 39.6483 0 30.7729 0 19.8241C0.000117511 8.87549 8.95445 -9.15527e-05 20 -9.15527e-05ZM9.93457 29.5937H14.7139V15.3417H9.93457V29.5937ZM26.4463 15.0058C23.9061 15.0058 22.773 16.3913 22.1377 17.3603V17.4071H22.1064C22.115 17.392 22.1281 17.3761 22.1377 17.3603V15.3407H17.3564C17.4206 16.6792 17.3564 29.5927 17.3564 29.5927H22.1377V21.6327C22.1377 21.2055 22.17 20.7821 22.2959 20.4774C22.6425 19.6252 23.4273 18.745 24.748 18.745C26.4786 18.7452 27.1688 20.0524 27.1689 21.9667V29.5927H31.9492V21.4198C31.9492 17.0431 29.5914 15.0058 26.4463 15.0058ZM12.3555 8.47256C10.7203 8.47264 9.65047 9.53659 9.65039 10.9345C9.65039 12.3028 10.6894 13.3974 12.293 13.3974H12.3242C13.9915 13.3972 15.0283 12.3027 15.0283 10.9345C14.9965 9.53654 13.9911 8.47256 12.3555 8.47256Z" fill="#EBEBEB"/>
</g>
<defs>
<clipPath id="clip0_34_1387">
<rect width="40" height="40" fill="white"/>
</clipPath>
</defs>
</svg>
