<svg width="197" height="64" viewBox="0 0 197 64" fill="none" xmlns="http://www.w3.org/2000/svg">
<g clip-path="url(#clip0_34_1349)">
<path d="M194.029 62.5656V61.6583H194.861C195.037 61.6583 195.178 61.6072 195.284 61.505C195.39 61.3988 195.443 61.2618 195.443 61.0943C195.443 60.9839 195.416 60.8859 195.363 60.8C195.314 60.7142 195.243 60.6488 195.149 60.6039C195.059 60.5548 194.953 60.5303 194.831 60.5303H194.029V59.6292L194.855 59.623C195.165 59.6189 195.441 59.6802 195.681 59.8069C195.922 59.9336 196.11 60.1073 196.244 60.328C196.383 60.5487 196.452 60.8041 196.452 61.0943C196.452 61.3763 196.385 61.6297 196.25 61.8544C196.12 62.0751 195.936 62.2488 195.7 62.3755C195.463 62.5022 195.192 62.5656 194.886 62.5656H194.029ZM193.173 63.9203V59.6292H194.158V63.9203H193.173Z" fill="#EBEBEB"/>
<path d="M188.761 64C188.394 64 188.076 63.9305 187.806 63.7915C187.541 63.6526 187.337 63.4564 187.195 63.203C187.052 62.9455 186.98 62.6411 186.98 62.2896H187.966C187.966 62.4531 187.998 62.5941 188.063 62.7126C188.129 62.8311 188.22 62.9231 188.339 62.9885C188.461 63.0539 188.606 63.0865 188.773 63.0865C188.936 63.0865 189.079 63.0539 189.201 62.9885C189.324 62.9231 189.418 62.8311 189.483 62.7126C189.548 62.5941 189.581 62.4531 189.581 62.2896H190.566C190.566 62.6411 190.492 62.9455 190.346 63.203C190.203 63.4564 189.995 63.6526 189.722 63.7915C189.452 63.9305 189.132 64 188.761 64ZM186.98 62.2896V59.6291H187.966V62.2896H186.98ZM189.581 62.2896V59.6291H190.566V62.2896H189.581Z" fill="#EBEBEB"/>
<path d="M182.379 63.9939C181.938 63.9939 181.548 63.8999 181.21 63.7119C180.871 63.5198 180.606 63.2582 180.415 62.9272C180.223 62.5921 180.127 62.21 180.127 61.7808C180.127 61.3476 180.223 60.9655 180.415 60.6345C180.606 60.2994 180.869 60.0378 181.204 59.8498C181.542 59.6577 181.93 59.5617 182.366 59.5617C182.803 59.5617 183.188 59.6577 183.523 59.8498C183.861 60.0378 184.126 60.2994 184.318 60.6345C184.51 60.9655 184.606 61.3476 184.606 61.7808C184.606 62.21 184.51 62.5921 184.318 62.9272C184.13 63.2582 183.869 63.5198 183.535 63.7119C183.2 63.8999 182.815 63.9939 182.379 63.9939ZM182.379 63.0866C182.619 63.0866 182.831 63.0314 183.015 62.9211C183.198 62.8107 183.341 62.6575 183.443 62.4613C183.545 62.261 183.596 62.0342 183.596 61.7808C183.596 61.5234 183.543 61.2965 183.437 61.1004C183.331 60.9001 183.186 60.7448 183.003 60.6345C182.819 60.52 182.607 60.4628 182.366 60.4628C182.126 60.4628 181.914 60.52 181.73 60.6345C181.546 60.7448 181.402 60.9001 181.296 61.1004C181.19 61.2965 181.136 61.5234 181.136 61.7808C181.136 62.0342 181.19 62.261 181.296 62.4613C181.402 62.6575 181.548 62.8107 181.736 62.9211C181.924 63.0314 182.138 63.0866 182.379 63.0866Z" fill="#EBEBEB"/>
<path d="M175.378 62.4797V61.5725H176.173C176.288 61.5725 176.39 61.55 176.479 61.505C176.569 61.4601 176.638 61.3988 176.687 61.3211C176.74 61.2394 176.767 61.1495 176.767 61.0514C176.767 60.9002 176.71 60.7755 176.596 60.6774C176.485 60.5794 176.339 60.5303 176.155 60.5303H175.378V59.6292L176.204 59.623C176.514 59.6189 176.789 59.6782 177.03 59.8008C177.271 59.9234 177.458 60.093 177.593 60.3096C177.732 60.5262 177.801 60.7735 177.801 61.0514C177.801 61.3293 177.732 61.5765 177.593 61.7931C177.454 62.0097 177.263 62.1794 177.018 62.302C176.777 62.4205 176.5 62.4797 176.186 62.4797H175.378ZM174.521 63.9203V59.6292H175.507V63.9203H174.521ZM176.846 63.9203L175.88 62.2161L176.62 61.6705L177.972 63.9203H176.846Z" fill="#EBEBEB"/>
<path d="M170.199 63.994C169.759 63.994 169.369 63.9 169.031 63.712C168.696 63.5199 168.433 63.2584 168.242 62.9274C168.05 62.5922 167.954 62.2081 167.954 61.7749C167.954 61.3417 168.05 60.9595 168.242 60.6285C168.433 60.2934 168.696 60.0318 169.031 59.8438C169.369 59.6518 169.759 59.5557 170.199 59.5557C170.473 59.5557 170.72 59.5966 170.94 59.6783C171.164 59.756 171.36 59.8643 171.527 60.0032C171.694 60.1422 171.833 60.3016 171.943 60.4814L171.129 60.9718C171.068 60.8737 170.987 60.7858 170.885 60.7082C170.787 60.6305 170.679 60.5713 170.56 60.5304C170.442 60.4855 170.322 60.463 170.199 60.463C169.959 60.463 169.745 60.5182 169.557 60.6285C169.373 60.7389 169.229 60.8942 169.123 61.0944C169.017 61.2906 168.964 61.5174 168.964 61.7749C168.964 62.0323 169.015 62.2612 169.116 62.4615C169.218 62.6576 169.365 62.8129 169.557 62.9274C169.749 63.0418 169.971 63.099 170.224 63.099C170.416 63.099 170.585 63.0622 170.732 62.9887C170.879 62.9151 170.995 62.8129 171.08 62.6821C171.166 62.5514 171.209 62.3981 171.209 62.2224L172.145 62.063C172.145 62.4798 172.061 62.8334 171.894 63.1235C171.727 63.4096 171.499 63.6262 171.209 63.7733C170.919 63.9205 170.583 63.994 170.199 63.994ZM170.23 62.3266V61.5664H172.145V62.1488L171.594 62.3266H170.23Z" fill="#EBEBEB"/>
<path d="M160.595 63.994C160.155 63.994 159.765 63.9 159.426 63.712C159.092 63.5199 158.829 63.2584 158.637 62.9274C158.445 62.5922 158.35 62.2081 158.35 61.7749C158.35 61.3417 158.445 60.9595 158.637 60.6285C158.829 60.2934 159.092 60.0318 159.426 59.8438C159.765 59.6518 160.155 59.5557 160.595 59.5557C160.868 59.5557 161.115 59.5966 161.335 59.6783C161.56 59.756 161.756 59.8643 161.923 60.0032C162.09 60.1422 162.229 60.3016 162.339 60.4814L161.525 60.9718C161.464 60.8737 161.382 60.7858 161.28 60.7082C161.182 60.6305 161.074 60.5713 160.956 60.5304C160.838 60.4855 160.717 60.463 160.595 60.463C160.354 60.463 160.14 60.5182 159.953 60.6285C159.769 60.7389 159.624 60.8942 159.518 61.0944C159.412 61.2906 159.359 61.5174 159.359 61.7749C159.359 62.0323 159.41 62.2612 159.512 62.4615C159.614 62.6576 159.761 62.8129 159.953 62.9274C160.144 63.0418 160.367 63.099 160.62 63.099C160.811 63.099 160.981 63.0622 161.127 62.9887C161.274 62.9151 161.39 62.8129 161.476 62.6821C161.562 62.5514 161.605 62.3981 161.605 62.2224L162.541 62.063C162.541 62.4798 162.457 62.8334 162.29 63.1235C162.123 63.4096 161.894 63.6262 161.605 63.7733C161.315 63.9205 160.978 63.994 160.595 63.994ZM160.626 62.3266V61.5664H162.541V62.1488L161.99 62.3266H160.626Z" fill="#EBEBEB"/>
<path d="M154.927 63.9203L152.241 60.1685L153.048 59.6291L155.716 63.3624L154.927 63.9203ZM152.014 63.9203V59.6291H153.048L152.999 60.5241V63.9264L152.014 63.9203ZM154.927 63.9203V59.6291H155.912V63.9203H154.927Z" fill="#EBEBEB"/>
<path d="M148.363 63.9203V59.6291H149.348V63.9203H148.363Z" fill="#EBEBEB"/>
<path d="M143.794 63.9203V59.9846H144.773V63.9203H143.794ZM142.546 60.5364V59.6291H146.021V60.5364H142.546Z" fill="#EBEBEB"/>
<path d="M138.269 63.9203V59.6291H139.254V63.9203H138.269ZM138.856 63.9203V63.013H141.077V63.9203H138.856Z" fill="#EBEBEB"/>
<path d="M133.856 64C133.489 64 133.17 63.9305 132.901 63.7915C132.636 63.6526 132.432 63.4564 132.289 63.203C132.147 62.9455 132.075 62.6411 132.075 62.2896H133.06C133.06 62.4531 133.093 62.5941 133.158 62.7126C133.223 62.8311 133.315 62.9231 133.433 62.9885C133.556 63.0539 133.701 63.0865 133.868 63.0865C134.031 63.0865 134.174 63.0539 134.296 62.9885C134.419 62.9231 134.512 62.8311 134.578 62.7126C134.643 62.5941 134.676 62.4531 134.676 62.2896H135.661C135.661 62.6411 135.587 62.9455 135.44 63.203C135.298 63.4564 135.09 63.6526 134.816 63.7915C134.547 63.9305 134.227 64 133.856 64ZM132.075 62.2896V59.6291H133.06V62.2896H132.075ZM134.676 62.2896V59.6291H135.661V62.2896H134.676Z" fill="#EBEBEB"/>
<path d="M128.083 63.994C127.875 63.994 127.676 63.9675 127.484 63.9143C127.296 63.8571 127.125 63.7815 126.97 63.6875C126.819 63.5894 126.695 63.4811 126.597 63.3626C126.499 63.24 126.438 63.1092 126.413 62.9703L127.386 62.6944C127.431 62.8129 127.508 62.9171 127.618 63.0071C127.733 63.0929 127.875 63.1378 128.047 63.1419C128.214 63.146 128.353 63.1072 128.463 63.0254C128.577 62.9437 128.634 62.8374 128.634 62.7067C128.634 62.6045 128.593 62.5146 128.512 62.4369C128.434 62.3593 128.322 62.3 128.175 62.2592L127.569 62.1059C127.357 62.0528 127.172 61.969 127.013 61.8546C126.858 61.7401 126.735 61.6012 126.646 61.4377C126.56 61.2701 126.517 61.0801 126.517 60.8676C126.517 60.4548 126.654 60.134 126.927 59.9051C127.2 59.6722 127.586 59.5557 128.083 59.5557C128.357 59.5557 128.595 59.5945 128.799 59.6722C129.003 59.7457 129.177 59.8561 129.319 60.0032C129.466 60.1503 129.582 60.3343 129.668 60.5549L128.701 60.8431C128.669 60.7327 128.597 60.6326 128.487 60.5427C128.381 60.4528 128.242 60.4078 128.071 60.4078C127.9 60.4078 127.765 60.4466 127.667 60.5243C127.574 60.6019 127.527 60.7143 127.527 60.8615C127.527 60.9636 127.565 61.0495 127.643 61.1189C127.72 61.1843 127.826 61.2334 127.961 61.2661L128.567 61.4193C128.913 61.5051 129.183 61.6666 129.374 61.9036C129.57 62.1366 129.668 62.4022 129.668 62.7005C129.668 62.9703 129.605 63.2012 129.478 63.3933C129.356 63.5853 129.177 63.7345 128.94 63.8408C128.703 63.9429 128.418 63.994 128.083 63.994Z" fill="#EBEBEB"/>
<path d="M122.959 63.9203L120.273 60.1685L121.081 59.6291L123.749 63.3624L122.959 63.9203ZM120.047 63.9203V59.6291H121.081L121.032 60.5241V63.9264L120.047 63.9203ZM122.959 63.9203V59.6291H123.944V63.9203H122.959Z" fill="#EBEBEB"/>
<path d="M115.384 63.9939C114.944 63.9939 114.554 63.8999 114.216 63.7119C113.877 63.5198 113.612 63.2582 113.42 62.9272C113.229 62.5921 113.133 62.21 113.133 61.7808C113.133 61.3476 113.229 60.9655 113.42 60.6345C113.612 60.2994 113.875 60.0378 114.21 59.8498C114.548 59.6577 114.936 59.5617 115.372 59.5617C115.809 59.5617 116.194 59.6577 116.529 59.8498C116.867 60.0378 117.132 60.2994 117.324 60.6345C117.516 60.9655 117.611 61.3476 117.611 61.7808C117.611 62.21 117.516 62.5921 117.324 62.9272C117.136 63.2582 116.875 63.5198 116.541 63.7119C116.206 63.8999 115.821 63.9939 115.384 63.9939ZM115.384 63.0866C115.625 63.0866 115.837 63.0314 116.021 62.9211C116.204 62.8107 116.347 62.6575 116.449 62.4613C116.551 62.261 116.602 62.0342 116.602 61.7808C116.602 61.5234 116.549 61.2965 116.443 61.1004C116.337 60.9001 116.192 60.7448 116.008 60.6345C115.825 60.52 115.613 60.4628 115.372 60.4628C115.131 60.4628 114.919 60.52 114.736 60.6345C114.552 60.7448 114.407 60.9001 114.301 61.1004C114.195 61.2965 114.142 61.5234 114.142 61.7808C114.142 62.0342 114.195 62.261 114.301 62.4613C114.407 62.6575 114.554 62.8107 114.742 62.9211C114.93 63.0314 115.144 63.0866 115.384 63.0866Z" fill="#EBEBEB"/>
<path d="M109.018 63.994C108.594 63.994 108.219 63.9 107.893 63.712C107.57 63.5199 107.315 63.2584 107.128 62.9274C106.944 62.5922 106.853 62.2081 106.853 61.7749C106.853 61.3417 106.944 60.9595 107.128 60.6285C107.315 60.2934 107.57 60.0318 107.893 59.8438C108.219 59.6518 108.594 59.5557 109.018 59.5557C109.328 59.5557 109.612 59.6109 109.869 59.7212C110.13 59.8275 110.354 59.9787 110.542 60.1749C110.734 60.371 110.88 60.5979 110.982 60.8553L110.059 61.168C109.997 61.0249 109.914 60.9003 109.808 60.794C109.706 60.6878 109.587 60.606 109.453 60.5488C109.322 60.4916 109.178 60.463 109.018 60.463C108.794 60.463 108.594 60.5182 108.419 60.6285C108.243 60.7389 108.107 60.8942 108.009 61.0944C107.911 61.2906 107.862 61.5174 107.862 61.7749C107.862 62.0323 107.911 62.2612 108.009 62.4615C108.111 62.6576 108.25 62.8129 108.425 62.9274C108.604 63.0377 108.808 63.0929 109.037 63.0929C109.204 63.0929 109.353 63.0622 109.483 63.0009C109.614 62.9396 109.726 62.8538 109.82 62.7434C109.918 62.6331 110.001 62.5064 110.071 62.3634L110.995 62.676C110.897 62.9376 110.752 63.1685 110.56 63.3687C110.369 63.5649 110.142 63.7182 109.881 63.8285C109.62 63.9389 109.333 63.994 109.018 63.994Z" fill="#EBEBEB"/>
<path d="M190.925 58.4209C190.484 58.4209 190.095 58.3269 189.756 58.1389C189.422 57.9469 189.159 57.6853 188.967 57.3543C188.775 57.0191 188.68 56.635 188.68 56.2018C188.68 55.7686 188.775 55.3864 188.967 55.0554C189.159 54.7203 189.422 54.4587 189.756 54.2707C190.095 54.0787 190.484 53.9826 190.925 53.9826C191.198 53.9826 191.445 54.0235 191.665 54.1052C191.89 54.1829 192.085 54.2912 192.253 54.4301C192.42 54.5691 192.559 54.7285 192.669 54.9083L191.855 55.3987C191.794 55.3006 191.712 55.2128 191.61 55.1351C191.512 55.0575 191.404 54.9982 191.286 54.9573C191.168 54.9124 191.047 54.8899 190.925 54.8899C190.684 54.8899 190.47 54.9451 190.283 55.0554C190.099 55.1658 189.954 55.3211 189.848 55.5213C189.742 55.7175 189.689 55.9443 189.689 56.2018C189.689 56.4592 189.74 56.6881 189.842 56.8884C189.944 57.0845 190.091 57.2398 190.283 57.3543C190.474 57.4687 190.697 57.5259 190.949 57.5259C191.141 57.5259 191.31 57.4891 191.457 57.4156C191.604 57.342 191.72 57.2398 191.806 57.109C191.892 56.9783 191.935 56.825 191.935 56.6493L192.871 56.4899C192.871 56.9068 192.787 57.2603 192.62 57.5504C192.453 57.8365 192.224 58.0531 191.935 58.2002C191.645 58.3474 191.308 58.4209 190.925 58.4209ZM190.956 56.7535V55.9933H192.871V56.5757L192.32 56.7535H190.956Z" fill="#EBEBEB"/>
<path d="M185.256 58.3472L182.57 54.5954L183.378 54.056L186.045 57.7893L185.256 58.3472ZM182.344 58.3472V54.056H183.378L183.329 54.951V58.3533L182.344 58.3472ZM185.256 58.3472V54.056H186.241V58.3472H185.256Z" fill="#EBEBEB"/>
<path d="M177.932 58.4269C177.565 58.4269 177.247 58.3574 176.977 58.2184C176.712 58.0795 176.508 57.8833 176.366 57.6299C176.223 57.3725 176.151 57.068 176.151 56.7165H177.137C177.137 56.88 177.169 57.021 177.234 57.1395C177.3 57.258 177.391 57.35 177.51 57.4154C177.632 57.4808 177.777 57.5134 177.944 57.5134C178.107 57.5134 178.25 57.4808 178.372 57.4154C178.495 57.35 178.589 57.258 178.654 57.1395C178.719 57.021 178.752 56.88 178.752 56.7165H179.737C179.737 57.068 179.663 57.3725 179.517 57.6299C179.374 57.8833 179.166 58.0795 178.893 58.2184C178.623 58.3574 178.303 58.4269 177.932 58.4269ZM176.151 56.7165V54.056H177.137V56.7165H176.151ZM178.752 56.7165V54.056H179.737V56.7165H178.752Z" fill="#EBEBEB"/>
<path d="M171.55 58.4208C171.11 58.4208 170.72 58.3268 170.382 58.1388C170.043 57.9467 169.778 57.6851 169.586 57.3541C169.395 57.019 169.299 56.6369 169.299 56.2077C169.299 55.7745 169.395 55.3924 169.586 55.0614C169.778 54.7263 170.041 54.4647 170.376 54.2767C170.714 54.0846 171.102 53.9886 171.538 53.9886C171.975 53.9886 172.36 54.0846 172.695 54.2767C173.033 54.4647 173.298 54.7263 173.49 55.0614C173.682 55.3924 173.778 55.7745 173.778 56.2077C173.778 56.6369 173.682 57.019 173.49 57.3541C173.302 57.6851 173.041 57.9467 172.707 58.1388C172.372 58.3268 171.987 58.4208 171.55 58.4208ZM171.55 57.5135C171.791 57.5135 172.003 57.4583 172.187 57.348C172.37 57.2376 172.513 57.0844 172.615 56.8882C172.717 56.6879 172.768 56.4611 172.768 56.2077C172.768 55.9503 172.715 55.7235 172.609 55.5273C172.503 55.327 172.358 55.1717 172.174 55.0614C171.991 54.947 171.779 54.8897 171.538 54.8897C171.298 54.8897 171.085 54.947 170.902 55.0614C170.718 55.1717 170.573 55.327 170.467 55.5273C170.361 55.7235 170.308 55.9503 170.308 56.2077C170.308 56.4611 170.361 56.6879 170.467 56.8882C170.573 57.0844 170.72 57.2376 170.908 57.348C171.096 57.4583 171.31 57.5135 171.55 57.5135Z" fill="#EBEBEB"/>
<path d="M165.701 56.5816L164.752 56.3855L166.123 54.056H167.243L165.701 56.5816ZM164.752 58.3472V56.2874H165.738V58.3472H164.752ZM164.783 56.5816L163.241 54.056H164.361L165.731 56.3855L164.783 56.5816Z" fill="#EBEBEB"/>
<path d="M156.696 58.3472L154.01 54.5954L154.817 54.056L157.485 57.7893L156.696 58.3472ZM153.783 58.3472V54.056H154.817L154.768 54.951V58.3533L153.783 58.3472ZM156.696 58.3472V54.056H157.681V58.3472H156.696Z" fill="#EBEBEB"/>
<path d="M150.44 58.3472L148.837 54.056H149.816L151.481 58.3472H150.44ZM147.1 58.3472L148.764 54.056H149.743L148.14 58.3472H147.1ZM147.883 57.5318V56.6613H150.703V57.5318H147.883Z" fill="#EBEBEB"/>
<path d="M143.814 58.3472V54.056H144.8V58.3472H143.814Z" fill="#EBEBEB"/>
<path d="M139.247 58.3472V54.4115H140.226V58.3472H139.247ZM137.999 54.9633V54.056H141.474V54.9633H137.999Z" fill="#EBEBEB"/>
<path d="M134.263 58.4209C134.055 58.4209 133.855 58.3944 133.663 58.3412C133.476 58.284 133.304 58.2084 133.149 58.1144C132.999 58.0163 132.874 57.908 132.776 57.7895C132.678 57.6669 132.617 57.5361 132.593 57.3972L133.566 57.1213C133.61 57.2398 133.688 57.344 133.798 57.434C133.912 57.5198 134.055 57.5647 134.226 57.5688C134.394 57.5729 134.532 57.5341 134.642 57.4523C134.757 57.3706 134.814 57.2643 134.814 57.1336C134.814 57.0314 134.773 56.9415 134.691 56.8638C134.614 56.7862 134.502 56.7269 134.355 56.6861L133.749 56.5328C133.537 56.4797 133.351 56.3959 133.192 56.2815C133.037 56.167 132.915 56.0281 132.825 55.8646C132.74 55.697 132.697 55.507 132.697 55.2945C132.697 54.8817 132.833 54.5609 133.107 54.332C133.38 54.0991 133.765 53.9826 134.263 53.9826C134.536 53.9826 134.775 54.0214 134.979 54.0991C135.183 54.1727 135.356 54.283 135.499 54.4301C135.646 54.5772 135.762 54.7612 135.848 54.9818L134.881 55.27C134.848 55.1596 134.777 55.0595 134.667 54.9696C134.561 54.8797 134.422 54.8347 134.251 54.8347C134.079 54.8347 133.945 54.8735 133.847 54.9512C133.753 55.0288 133.706 55.1412 133.706 55.2884C133.706 55.3905 133.745 55.4764 133.823 55.5458C133.9 55.6112 134.006 55.6603 134.141 55.693L134.746 55.8462C135.093 55.932 135.362 56.0935 135.554 56.3305C135.75 56.5635 135.848 56.8291 135.848 57.1274C135.848 57.3972 135.784 57.6281 135.658 57.8202C135.536 58.0122 135.356 58.1614 135.12 58.2677C134.883 58.3698 134.598 58.4209 134.263 58.4209Z" fill="#EBEBEB"/>
<path d="M129.143 58.3472V54.056H130.128V58.3472H129.143Z" fill="#EBEBEB"/>
<path d="M124.16 56.9066V55.9994H124.956C125.07 55.9994 125.172 55.9769 125.262 55.9319C125.351 55.887 125.421 55.8257 125.47 55.748C125.523 55.6663 125.549 55.5764 125.549 55.4783C125.549 55.3271 125.492 55.2024 125.378 55.1043C125.268 55.0062 125.121 54.9572 124.937 54.9572H124.16V54.0561L124.986 54.0499C125.296 54.0458 125.572 54.1051 125.812 54.2277C126.053 54.3503 126.241 54.5199 126.375 54.7365C126.514 54.9531 126.583 55.2004 126.583 55.4783C126.583 55.7562 126.514 56.0034 126.375 56.22C126.237 56.4366 126.045 56.6062 125.8 56.7289C125.559 56.8474 125.282 56.9066 124.968 56.9066H124.16ZM123.304 58.3472V54.0561H124.289V58.3472H123.304ZM125.629 58.3472L124.662 56.643L125.402 56.0974L126.755 58.3472H125.629Z" fill="#EBEBEB"/>
<path d="M119.651 58.3473V54.0561H120.636V58.3473H119.651ZM116.886 58.3473V54.05L117.871 54.0561V58.3535L116.886 58.3473ZM117.583 56.6125V55.7052H120.177V56.6125H117.583Z" fill="#EBEBEB"/>
<path d="M112.538 58.4209C112.114 58.4209 111.739 58.3269 111.412 58.1389C111.09 57.9469 110.835 57.6853 110.647 57.3543C110.464 57.0191 110.372 56.635 110.372 56.2018C110.372 55.7686 110.464 55.3864 110.647 55.0554C110.835 54.7203 111.09 54.4587 111.412 54.2707C111.739 54.0787 112.114 53.9826 112.538 53.9826C112.848 53.9826 113.131 54.0378 113.388 54.1481C113.65 54.2544 113.874 54.4056 114.061 54.6018C114.253 54.7979 114.4 55.0248 114.502 55.2822L113.578 55.5949C113.517 55.4518 113.433 55.3272 113.327 55.2209C113.225 55.1147 113.107 55.0329 112.972 54.9757C112.842 54.9185 112.697 54.8899 112.538 54.8899C112.314 54.8899 112.114 54.9451 111.938 55.0554C111.763 55.1658 111.626 55.3211 111.528 55.5213C111.431 55.7175 111.382 55.9443 111.382 56.2018C111.382 56.4592 111.431 56.6881 111.528 56.8884C111.63 57.0845 111.769 57.2398 111.945 57.3543C112.124 57.4646 112.328 57.5198 112.556 57.5198C112.724 57.5198 112.872 57.4891 113.003 57.4278C113.134 57.3665 113.246 57.2807 113.34 57.1704C113.437 57.06 113.521 56.9333 113.59 56.7903L114.514 57.1029C114.416 57.3645 114.272 57.5954 114.08 57.7956C113.888 57.9918 113.662 58.1451 113.401 58.2554C113.14 58.3658 112.852 58.4209 112.538 58.4209Z" fill="#EBEBEB"/>
<rect x="13.913" y="53.9826" width="70.6783" height="3.89565" fill="#EBEBEB"/>
<path fill-rule="evenodd" clip-rule="evenodd" d="M137.634 3.12727C141.114 1.04252 144.93 0 149.041 0C152.194 0 155.217 0.650147 158.092 1.94639C160.996 3.23686 163.521 5.04097 165.65 7.35297L166.956 8.77139L162.027 13.3975L160.693 11.9645C159.186 10.3458 157.422 9.1088 155.388 8.24315L155.374 8.23721L155.36 8.23106C153.319 7.32464 151.218 6.87649 149.041 6.87649C146.167 6.87649 143.522 7.58982 141.073 9.02076C138.61 10.4588 136.671 12.3962 135.232 14.8561L135.229 14.8618L135.225 14.8675C133.802 17.2624 133.086 19.8984 133.086 22.8174C133.086 25.7364 133.802 28.3986 135.232 30.8421C136.672 33.3034 138.614 35.2651 141.082 36.7466C143.529 38.1737 146.17 38.8852 149.041 38.8852H159.028V28.0001H145.441V21.2505H165.911V45.6348H149.041C144.936 45.6348 141.123 44.6163 137.642 42.5759C134.18 40.5469 131.423 37.7916 129.392 34.333L129.389 34.3281L129.386 34.3233C127.347 30.8051 126.33 26.9572 126.33 22.8174C126.33 18.7174 127.349 14.9097 129.389 11.4331C131.417 7.93627 134.171 5.15857 137.634 3.12727Z" fill="#EBEBEB"/>
<path fill-rule="evenodd" clip-rule="evenodd" d="M40.0696 0H48.197L63.4721 22.8697L78.6877 0H86.8174L66.8191 30.2005V46.1913H60.0679V30.2004L40.0696 0Z" fill="#EBEBEB"/>
<path fill-rule="evenodd" clip-rule="evenodd" d="M11.4911 3.1339C15.049 1.04648 18.9257 0 23.0838 0C26.3156 0 29.4145 0.673749 32.3618 2.01521C35.3454 3.3114 37.9588 5.16394 40.1903 7.5593L41.5544 9.02365L36.3304 13.6084L35.0238 12.1518C33.4959 10.4487 31.6879 9.12821 29.5844 8.18084L29.5782 8.17803L29.572 8.17518C27.5233 7.23538 25.3674 6.7661 23.0838 6.7661C20.1407 6.7661 17.4543 7.4996 14.9847 8.96786L14.9751 8.97358L14.9654 8.97919C12.4827 10.4174 10.4992 12.3781 8.99871 14.8908C7.55314 17.3823 6.82843 20.0943 6.82843 23.0639C6.82843 26.0334 7.55314 28.7454 8.99871 31.237C10.4999 33.7508 12.4863 35.736 14.9752 37.2178C17.4446 38.646 20.1346 39.3616 23.0838 39.3616C25.5232 39.3616 27.8141 38.8355 29.9803 37.7811L29.9863 37.7782L29.9924 37.7753C32.2149 36.7121 34.1054 35.2367 35.6787 33.3356L36.8963 31.8643L42.2957 36.0255L41.0537 37.5704C38.8637 40.2944 36.1969 42.4281 33.0672 43.9556L33.0565 43.9608L33.0458 43.9658C29.9114 45.4492 26.5833 46.1913 23.0838 46.1913C18.9257 46.1913 15.049 45.1448 11.4911 43.0574C7.95075 40.9803 5.14153 38.1746 3.08884 34.6614L3.08605 34.6566L3.08329 34.6518C1.02809 31.0881 0 27.2137 0 23.0639C0 18.914 1.02823 15.0567 3.08884 11.5299C5.14153 8.01672 7.95075 5.21104 11.4911 3.1339Z" fill="#EBEBEB"/>
<path fill-rule="evenodd" clip-rule="evenodd" d="M96.0819 3.1339C99.6398 1.04648 103.517 0 107.675 0C110.906 0 114.005 0.673749 116.953 2.01521C119.936 3.3114 122.55 5.16394 124.781 7.5593L126.145 9.02365L120.921 13.6084L119.615 12.1518C118.087 10.4487 116.279 9.12821 114.175 8.18084L114.169 8.17803L114.163 8.17518C112.114 7.23538 109.958 6.7661 107.675 6.7661C104.731 6.7661 102.045 7.4996 99.5755 8.96786L99.5659 8.97358L99.5562 8.97919C97.0735 10.4174 95.09 12.3781 93.5895 14.8908C92.144 17.3823 91.4193 20.0943 91.4193 23.0639C91.4193 26.0334 92.144 28.7454 93.5895 31.237C95.0907 33.7508 97.0771 35.736 99.566 37.2178C102.035 38.646 104.725 39.3616 107.675 39.3616C110.114 39.3616 112.405 38.8355 114.571 37.7811L114.577 37.7782L114.583 37.7753C116.806 36.7121 118.696 35.2367 120.27 33.3356L121.487 31.8643L126.886 36.0255L125.644 37.5704C123.455 40.2944 120.788 42.4281 117.658 43.9556L117.647 43.9608L117.637 43.9658C114.502 45.4492 111.174 46.1913 107.675 46.1913C103.517 46.1913 99.6398 45.1448 96.0819 43.0574C92.5416 40.9803 89.7324 38.1746 87.6797 34.6614L87.6769 34.6566L87.6741 34.6518C85.6189 31.0881 84.5908 27.2137 84.5908 23.0639C84.5908 18.914 85.619 15.0567 87.6797 11.5299C89.7324 8.01672 92.5416 5.21104 96.0819 3.1339Z" fill="#EBEBEB"/>
</g>
<defs>
<clipPath id="clip0_34_1349">
<rect width="196.452" height="64" fill="white"/>
</clipPath>
</defs>
</svg>
