<svg width="40" height="40" viewBox="0 0 40 40" fill="none" xmlns="http://www.w3.org/2000/svg">
<g clip-path="url(#clip0_171_9)">
<path d="M20 0C31.0457 0 40 8.95431 40 20C40 31.0457 31.0457 40 20 40C8.95431 40 0 31.0457 0 20C0 8.95431 8.95431 0 20 0ZM10.4004 10.4004L10.2197 10.4062C9.61623 10.4517 9.05224 10.7233 8.64062 11.167C8.22896 11.6109 7.99986 12.1944 8 12.7998V27.2002L8.00586 27.3799C8.05127 27.9837 8.3236 28.5483 8.76758 28.96C9.21153 29.3715 9.79499 29.5998 10.4004 29.5996H29.5996L29.7803 29.5938C30.3838 29.5483 30.9478 29.2767 31.3594 28.833C31.771 28.3891 32.0001 27.8056 32 27.2002V12.7998L31.9941 12.6201C31.9487 12.0163 31.6764 11.4517 31.2324 11.04C30.7885 10.6285 30.205 10.4002 29.5996 10.4004H10.4004ZM29.5996 27.2002H10.4004V14.4971L18.7275 22.8252C19.065 23.1623 19.523 23.3516 20 23.3516C20.477 23.3516 20.935 23.1623 21.2725 22.8252L29.5996 14.4971V27.2002ZM27.9033 12.7998L20 20.7031L12.0967 12.7998H27.9033Z" fill="#EBEBEB"/>
</g>
<defs>
<clipPath id="clip0_171_9">
<rect width="40" height="40" rx="20" fill="white"/>
</clipPath>
</defs>
</svg>
