<svg width="32" height="32" viewBox="0 0 32 32" fill="none" xmlns="http://www.w3.org/2000/svg">
<path d="M26.371 16.0001C26.371 13.2496 25.2784 10.6118 23.3335 8.66691C21.3886 6.72203 18.7508 5.62941 16.0003 5.62941C13.2499 5.62941 10.612 6.72203 8.66716 8.66691C6.72228 10.6118 5.62966 13.2496 5.62966 16.0001C5.62966 18.7506 6.72228 21.3884 8.66716 23.3332C10.612 25.2781 13.2499 26.3707 16.0003 26.3707C18.7508 26.3707 21.3886 25.2781 23.3335 23.3332C25.2784 21.3884 26.371 18.7506 26.371 16.0001ZM19.3977 12.7307C19.5351 12.5933 19.6983 12.4843 19.8779 12.4099C20.0575 12.3355 20.2499 12.2972 20.4443 12.2972C20.6387 12.2972 20.8312 12.3355 21.0108 12.4099C21.1904 12.4843 21.3535 12.5933 21.491 12.7307C21.6284 12.8682 21.7375 13.0314 21.8119 13.211C21.8862 13.3905 21.9245 13.583 21.9245 13.7774C21.9245 13.9718 21.8862 14.1643 21.8119 14.3439C21.7375 14.5235 21.6284 14.6866 21.491 14.8241L17.0483 19.2694C16.9108 19.4073 16.7475 19.5167 16.5677 19.5913C16.3878 19.666 16.195 19.7044 16.0003 19.7044C15.8056 19.7044 15.6128 19.666 15.433 19.5913C15.2531 19.5167 15.0898 19.4073 14.9523 19.2694L10.5083 14.8267L10.407 14.7134C10.1732 14.4294 10.0535 14.0685 10.0713 13.701C10.0892 13.3336 10.2432 12.986 10.5034 12.7259C10.7636 12.4659 11.1114 12.3121 11.4788 12.2945C11.8463 12.2769 12.2071 12.3968 12.491 12.6307L12.603 12.7321L16.0003 16.1267L19.3977 12.7307ZM29.3337 16.0001C29.3337 23.3641 23.3643 29.3334 16.0003 29.3334C8.63633 29.3334 2.66699 23.3641 2.66699 16.0001C2.66699 8.63608 8.63633 2.66675 16.0003 2.66675C23.3643 2.66675 29.3337 8.63608 29.3337 16.0001Z" fill="#EBEBEB"/>
</svg>
